:SAMPLES-PER-SECOND 30
:FRAME-RANGE 1-3535
:FULLY-SPECIFIED
:DEGREES
3315
root  4.00359 39.1223 -23.6908 3.58813 29.6043 -5.42108
RightUpLeg  -13.8125 8.47719 7.02254
RightLeg  21.729 0.531101 0.0118081
RightFoot  -12.4215 -0.0978252 -1.46434
RightToes  5.38503e-012 1.26228e-014 -6.01869e-014
Spine  -0.690828 -2.55873 0.903391
Spine1  3.24393 -2.90828 2.31404
HEad  23.8781 -12.61 -4.54238
LeftShoulder1  2.1373 -4.47832 -21.3461
LeftArm  -1.93265 -5.27 -55.6916
LeftForeArm  28.7656 2.4141 -12.6233
LeftHand  -0.0375646 5.01526 4.62807
RightShoulder  1.16566 0.554468 23.9888
RightArm  -17.2406 2.99385 52.0508
RightForeArm  72.411 -5.94062 7.98918
RightHand  0.248113 -7.08721 -17.9675
LeftUpLeg  -14.8722 0.865736 6.63941
LeftLeg  44.4607 -3.17803 -2.93313
LeftFoot  -15.7707 -0.143381 -6.14505
LeftToes  8.9788e-011 3.29689e-010 2.1201e-011
3316
root  4.78146 39.2459 -22.6967 3.8432 31.1989 -4.23102
RightUpLeg  -10.4821 4.41925 5.92832
RightLeg  20.0849 2.73126 0.731047
RightFoot  -13.739 -0.130739 -1.8079
RightToes  5.38503e-012 1.26228e-014 -6.01869e-014
Spine  -1.30618 -1.85826 1.19806
Spine1  3.62293 -1.97402 1.11175
HEad  24.8815 -13.6369 -4.46254
LeftShoulder1  2.01455 -3.91903 -21.7987
LeftArm  -1.58915 -2.53793 -52.1733
LeftForeArm  27.4727 2.20822 -12.8437
LeftHand  -0.0340453 4.88937 4.72818
RightShoulder  1.3523 1.23651 23.5781
RightArm  -16.7815 4.53389 53.3851
RightForeArm  69.4434 -6.08688 8.17121
RightHand  0.137809 -6.38041 -17.7857
LeftUpLeg  -19.5472 2.5504 7.51683
LeftLeg  43.0329 -1.56206 -1.16653
LeftFoot  -15.6728 -0.139499 -6.16588
LeftToes  8.9788e-011 3.29689e-010 2.1201e-011
3317
root  5.58996 39.3265 -21.7303 4.15497 32.6709 -3.3053
RightUpLeg  -7.42218 0.895301 4.74245
RightLeg  18.6598 4.73293 1.35373
RightFoot  -14.8568 -0.159782 -1.93321
RightToes  5.38503e-012 1.26228e-014 -6.01869e-014
Spine  -1.52609 -1.00075 1.55623
Spine1  3.7676 -0.989153 0.22713
HEad  25.1974 -14.4959 -4.49118
LeftShoulder1  1.801 -2.98767 -22.5738
LeftArm  -1.32905 -0.603038 -48.6574
LeftForeArm  26.5657 2.14434 -12.9682
LeftHand  -0.0437898 4.71743 4.09171
RightShoulder  1.36631 1.36949 23.0026
RightArm  -14.658 6.58301 54.1841
RightForeArm  66.1714 -6.3655 9.14078
RightHand  0.116423 -6.24962 -17.6094
LeftUpLeg  -23.7677 3.8092 7.87065
LeftLeg  39.5403 -0.837833 -0.364316
LeftFoot  -13.6466 -0.0384214 -5.96686
LeftToes  8.9788e-011 3.29689e-010 2.1201e-011
3318
root  6.46917 39.3782 -20.7751 4.42963 33.8661 -2.57104
RightUpLeg  -4.24457 -1.09674 3.60657
RightLeg  16.9737 5.74322 1.49928
RightFoot  -15.6642 -0.169338 -1.68033
RightToes  5.38503e-012 1.26228e-014 -6.01869e-014
Spine  -1.8183 -0.155854 2.23626
Spine1  3.80561 -0.0177284 -0.761636
HEad  25.3869 -14.9135 -4.50057
LeftShoulder1  1.60742 -2.18776 -23.2502
LeftArm  -1.38664 1.31491 -45.318
LeftForeArm  25.4592 2.42055 -12.9596
LeftHand  -0.0402901 4.92609 4.49342
RightShoulder  1.49656 1.92825 22.3548
RightArm  -13.1936 8.46666 54.8119
RightForeArm  64.8318 -6.50595 9.71733
RightHand  0.0697216 -5.94677 -17.4027
LeftUpLeg  -27.1166 4.97039 7.45953
LeftLeg  34.0191 0.319355 0.587136
LeftFoot  -11.544 0.0611344 -4.53988
LeftToes  8.9788e-011 3.29689e-010 2.1201e-011
3319
root  7.43406 39.373 -19.8264 4.56665 34.7968 -1.77051
RightUpLeg  -0.964536 -2.68632 2.22698
RightLeg  15.6696 6.661 1.62639
RightFoot  -16.5091 -0.167351 -1.23439
RightToes  5.38503e-012 1.26228e-014 -6.01869e-014
Spine  -2.21068 0.707908 2.91357
Spine1  4.33632 0.972917 -1.68055
HEad  25.2038 -14.7583 -4.77518
LeftShoulder1  1.44428 -1.53712 -23.8398
LeftArm  -1.58719 2.77876 -42.2733
LeftForeArm  24.5381 3.23707 -12.8771
LeftHand  -0.0364092 5.04238 4.52482
RightShoulder  1.66336 2.63425 21.75
RightArm  -12.3208 10.5258 55.1064
RightForeArm  64.5435 -6.55213 9.94406
RightHand  0.0218973 -5.62855 -17.1904
LeftUpLeg  -29.2529 5.81991 6.27245
LeftLeg  27.2938 2.49033 1.73161
LeftFoot  -9.09273 0.13909 -4.30891
LeftToes  8.9788e-011 3.29689e-010 2.1201e-011
3320
root  8.47962 39.3207 -18.8868 4.56177 35.2107 -1.03253
RightUpLeg  2.28829 -3.77815 0.716332
RightLeg  14.7948 7.77064 1.72926
RightFoot  -17.2311 -0.151845 -0.686125
RightToes  5.38503e-012 1.26228e-014 -6.01869e-014
Spine  -2.79164 1.59479 3.96764
Spine1  5.40186 2.11023 -2.99523
HEad  24.9014 -13.908 -5.08159
LeftShoulder1  1.24557 -0.847798 -24.0094
LeftArm  -1.48803 4.14761 -39.8788
LeftForeArm  23.5296 4.02275 -12.9227
LeftHand  -0.0255149 5.37382 4.05238
RightShoulder  1.84224 3.40327 21.1909
RightArm  -12.2026 13.0511 55.375
RightForeArm  64.7356 -6.52165 9.7947
RightHand  -0.0128001 -5.39156 -17.1536
LeftUpLeg  -30.0538 6.97318 4.50961
LeftLeg  19.9347 6.2307 2.82321
LeftFoot  -6.46266 0.178464 -3.27851
LeftToes  8.9788e-011 3.29689e-010 2.1201e-011
3321
root  9.59515 39.2021 -17.9733 4.37903 35.1054 -0.455444
RightUpLeg  5.28446 -4.22764 -0.818615
RightLeg  14.6035 9.03045 1.83088
RightFoot  -17.9879 -0.0984998 0.399792
RightToes  5.38503e-012 1.26228e-014 -6.01869e-014
Spine  -2.94855 2.54714 5.42638
Spine1  6.20344 3.43972 -4.67385
HEad  24.3751 -12.1937 -5.54798
LeftShoulder1  1.03412 -0.159289 -23.8544
LeftArm  -1.25935 5.32458 -38.1428
LeftForeArm  22.764 5.29702 -13.0381
LeftHand  -0.0160634 5.6792 4.12721
RightShoulder  1.92157 3.88516 20.4112
RightArm  -13.2873 15.6181 56.1684
RightForeArm  65.8083 -6.35526 8.99112
RightHand  -0.0142729 -5.37837 -17.6697
LeftUpLeg  -30.0123 7.72198 2.8684
LeftLeg  13.1398 11.9675 3.11681
LeftFoot  -5.24581 0.18363 -2.8571
LeftToes  8.9788e-011 3.29689e-010 2.1201e-011
3322
root  10.783 39.0383 -17.0592 4.27728 34.7942 -0.0198975
RightUpLeg  7.79155 -3.68945 -2.16342
RightLeg  15.0269 9.58259 1.84516
RightFoot  -18.644 -0.0253485 1.58054
RightToes  5.38503e-012 1.26228e-014 -6.01869e-014
Spine  -3.2309 3.39826 6.7392
Spine1  7.08236 4.63272 -6.03247
HEad  23.5781 -9.30206 -6.04467
LeftShoulder1  0.801786 0.619295 -23.8523
LeftArm  -1.24206 6.93417 -36.6346
LeftForeArm  22.3565 5.9788 -13.0214
LeftHand  -0.014892 5.77416 3.73397
RightShoulder  1.9924 4.37298 19.5864
RightArm  -15.3387 17.8645 57.0074
RightForeArm  67.7549 -6.05507 7.56845
RightHand  0.0245801 -5.6284 -18.0596
LeftUpLeg  -29.4787 5.84251 2.75053
LeftLeg  7.37316 20.1206 1.81678
LeftFoot  -3.48625 0.226791 -2.99826
LeftToes  8.9788e-011 3.29689e-010 2.1201e-011
3323
root  12.0705 38.8457 -16.0965 4.32751 34.6229 0.470703
RightUpLeg  10.0182 -2.2934 -3.43612
RightLeg  16.0502 9.42623 1.97844
RightFoot  -18.9573 0.103246 3.48
RightToes  5.38503e-012 1.26228e-014 -6.01869e-014
Spine  -3.58067 3.99813 7.4254
Spine1  7.70803 5.42878 -6.76143
HEad  22.9692 -4.79306 -6.46513
LeftShoulder1  0.559124 1.42688 -23.7613
LeftArm  -1.25716 9.25574 -35.4124
LeftForeArm  21.6449 5.85578 -12.9147
LeftHand  -0.0170977 5.73194 3.3596
RightShoulder  2.03427 4.62729 19.2631
RightArm  -16.9468 19.4995 57.4417
RightForeArm  68.6646 -5.83155 6.40033
RightHand  0.0612826 -5.86391 -18.1396
LeftUpLeg  -28.772 3.88279 1.9192
LeftLeg  3.06602 26.4504 0.52691
LeftFoot  -1.02378 0.1977 -2.12197
LeftToes  8.9788e-011 3.29689e-010 2.1201e-011
3324
root  13.4655 38.5844 -15.0687 4.24689 34.4916 0.718079
RightUpLeg  11.8762 0.444308 -4.3054
RightLeg  17.9988 8.70234 2.5552
RightFoot  -18.9516 0.248442 5.66408
RightToes  5.38503e-012 1.26228e-014 -6.01869e-014
Spine  -3.91284 4.4651 7.98651
Spine1  8.06168 5.98398 -7.19797
HEad  22.0434 1.04931 -6.42508
LeftShoulder1  0.291813 2.30533 -23.1582
LeftArm  -1.55092 11.9861 -35.1161
LeftForeArm  21.2104 5.68079 -12.7034
LeftHand  -0.0194746 5.71588 3.18522
RightShoulder  2.07556 4.77621 19.3076
RightArm  -18.3182 20.0352 57.5273
RightForeArm  68.42 -5.6897 5.47377
RightHand  0.0741627 -5.94517 -18.1878
LeftUpLeg  -28.2964 2.95699 0.483945
LeftLeg  2.46468 28.7078 0.190113
LeftFoot  -1.09182 0.177736 -1.90891
LeftToes  8.9788e-011 3.29689e-010 2.1201e-011
